<svg width="25" height="25" viewBox="0 0 25 25" fill="none" xmlns="http://www.w3.org/2000/svg">
<path d="M15.1099 3.63394C15.2999 3.63394 15.4899 3.70394 15.6399 3.85394C15.9299 4.14394 15.9299 4.62394 15.6399 4.91394L9.11992 11.4339C8.63992 11.9139 8.63992 12.6939 9.11992 13.1739L15.6399 19.6939C15.9299 19.9839 15.9299 20.4639 15.6399 20.7539C15.3499 21.0439 14.8699 21.0439 14.5799 20.7539L8.05992 14.2339C7.54992 13.7239 7.25992 13.0339 7.25992 12.3039C7.25992 11.5739 7.53992 10.8839 8.05992 10.3739L14.5799 3.85394C14.7299 3.71394 14.9199 3.63394 15.1099 3.63394Z" fill="#FF4514"/>
</svg>
