<svg width="196" height="26" viewBox="0 0 196 26" fill="none" xmlns="http://www.w3.org/2000/svg">
<path d="M2.66917 10.1856C1.70171 9.8197 0.620839 10.3074 0.254971 11.2748C-0.110896 12.2423 0.376788 13.3232 1.34425 13.689L2.66917 10.1856ZM194.876 9.21865C195.278 8.26568 194.831 7.16719 193.878 6.76509L178.349 0.212627C177.396 -0.189465 176.297 0.257111 175.895 1.21008C175.493 2.16305 175.94 3.26155 176.893 3.66364L190.697 9.48806L184.872 23.2921C184.47 24.2451 184.917 25.3436 185.87 25.7457C186.823 26.1478 187.921 25.7012 188.323 24.7482L194.876 9.21865ZM2.00671 11.9373C1.34425 13.689 1.34491 13.6893 1.3457 13.6896C1.34614 13.6898 1.34707 13.6901 1.34796 13.6904C1.34973 13.6911 1.35204 13.692 1.35489 13.6931C1.36058 13.6952 1.36842 13.6981 1.37839 13.7018C1.39834 13.7093 1.42684 13.7198 1.46386 13.7334C1.5379 13.7606 1.64601 13.7999 1.78793 13.8504C2.07176 13.9515 2.4908 14.0975 3.04285 14.2816C4.14693 14.6499 5.78308 15.1705 7.93363 15.7886C12.2347 17.0246 18.5937 18.6504 26.8693 20.2259C43.4207 23.3769 67.6389 26.3265 98.3925 25.5543L98.2985 21.8099C67.8345 22.5748 43.8833 19.6521 27.5698 16.5464C19.4129 14.9935 13.1654 13.3949 8.96821 12.1886C6.86963 11.5855 5.28366 11.0805 4.22793 10.7284C3.70006 10.5524 3.30477 10.4145 3.04423 10.3218C2.91397 10.2754 2.8174 10.2403 2.7548 10.2173C2.72349 10.2058 2.70068 10.1973 2.6864 10.192C2.67926 10.1894 2.67425 10.1875 2.67138 10.1864C2.66994 10.1859 2.66904 10.1855 2.66867 10.1854C2.66849 10.1853 2.66861 10.1854 2.66852 10.1853C2.66878 10.1854 2.66917 10.1856 2.00671 11.9373ZM98.3925 25.5543C129.132 24.7824 152.955 20.9678 169.115 17.3372C177.195 15.5219 183.358 13.7527 187.513 12.433C189.59 11.7732 191.165 11.2257 192.226 10.841C192.756 10.6486 193.158 10.4969 193.43 10.3923C193.567 10.3399 193.67 10.2993 193.741 10.2713C193.776 10.2573 193.804 10.2464 193.823 10.2387C193.832 10.2349 193.84 10.2319 193.845 10.2297C193.848 10.2286 193.85 10.2277 193.852 10.227C193.853 10.2266 193.854 10.2263 193.854 10.2261C193.855 10.2258 193.856 10.2255 193.15 8.4906C192.445 6.75567 192.445 6.75552 192.446 6.75542C192.445 6.75545 192.446 6.7554 192.445 6.75548C192.445 6.75562 192.444 6.75597 192.443 6.75652C192.44 6.75763 192.435 6.75956 192.428 6.7623C192.415 6.76778 192.393 6.77649 192.363 6.78835C192.303 6.81206 192.211 6.84833 192.086 6.89638C191.836 6.99247 191.457 7.13566 190.949 7.31967C189.934 7.68768 188.407 8.21893 186.379 8.86319C182.322 10.1517 176.263 11.8922 168.294 13.6826C152.356 17.2635 128.776 21.0446 98.2985 21.8099L98.3925 25.5543Z" fill="#FF4514"/>
</svg>
