<svg width="25" height="25" viewBox="0 0 25 25" fill="none" xmlns="http://www.w3.org/2000/svg">
<path d="M8.92987 20.974C8.73987 20.974 8.54987 20.904 8.39987 20.754C8.10987 20.464 8.10987 19.984 8.39987 19.694L14.9199 13.174C15.3999 12.694 15.3999 11.914 14.9199 11.434L8.39987 4.91397C8.10987 4.62397 8.10987 4.14397 8.39987 3.85397C8.68987 3.56397 9.16987 3.56397 9.45987 3.85397L15.9799 10.374C16.4899 10.884 16.7799 11.574 16.7799 12.304C16.7799 13.034 16.4999 13.724 15.9799 14.234L9.45987 20.754C9.30987 20.894 9.11987 20.974 8.92987 20.974Z" fill="#FF4514"/>
</svg>
