<svg width="24" height="25" viewBox="0 0 24 25" fill="none" xmlns="http://www.w3.org/2000/svg">
<path d="M8 6.25C7.59 6.25 7.25 5.91 7.25 5.5V2.5C7.25 2.09 7.59 1.75 8 1.75C8.41 1.75 8.75 2.09 8.75 2.5V5.5C8.75 5.91 8.41 6.25 8 6.25Z" fill="#FF4514"/>
<path d="M16 6.25C15.59 6.25 15.25 5.91 15.25 5.5V2.5C15.25 2.09 15.59 1.75 16 1.75C16.41 1.75 16.75 2.09 16.75 2.5V5.5C16.75 5.91 16.41 6.25 16 6.25Z" fill="#FF4514"/>
<path d="M15 23.25H9C3.38 23.25 2.25 20.6 2.25 16.32V10.15C2.25 5.41 3.85 3.48 7.96 3.25H16C16.01 3.25 16.03 3.25 16.04 3.25C20.15 3.48 21.75 5.41 21.75 10.15V16.32C21.75 20.6 20.62 23.25 15 23.25ZM8 4.75C5.2 4.91 3.75 5.79 3.75 10.15V16.32C3.75 20.15 4.48 21.75 9 21.75H15C19.52 21.75 20.25 20.15 20.25 16.32V10.15C20.25 5.8 18.81 4.91 15.98 4.75H8Z" fill="#FF4514"/>
<path d="M20.75 18.8501H3.25C2.84 18.8501 2.5 18.5101 2.5 18.1001C2.5 17.6901 2.84 17.3501 3.25 17.3501H20.75C21.16 17.3501 21.5 17.6901 21.5 18.1001C21.5 18.5101 21.16 18.8501 20.75 18.8501Z" fill="#FF4514"/>
<path d="M12 8.75C10.77 8.75 9.73 9.42 9.73 10.72C9.73 11.34 10.02 11.81 10.46 12.11C9.85 12.47 9.5 13.05 9.5 13.73C9.5 14.97 10.45 15.74 12 15.74C13.54 15.74 14.5 14.97 14.5 13.73C14.5 13.05 14.15 12.46 13.53 12.11C13.98 11.8 14.26 11.34 14.26 10.72C14.26 9.42 13.23 8.75 12 8.75ZM12 11.59C11.48 11.59 11.1 11.28 11.1 10.79C11.1 10.29 11.48 10 12 10C12.52 10 12.9 10.29 12.9 10.79C12.9 11.28 12.52 11.59 12 11.59ZM12 14.5C11.34 14.5 10.86 14.17 10.86 13.57C10.86 12.97 11.34 12.65 12 12.65C12.66 12.65 13.14 12.98 13.14 13.57C13.14 14.17 12.66 14.5 12 14.5Z" fill="#FF4514"/>
</svg>
