<svg width="44" height="44" viewBox="0 0 44 44" fill="none" xmlns="http://www.w3.org/2000/svg">
<path opacity="0.4" d="M21.529 39.4341C31.4285 39.4341 39.4536 31.409 39.4536 21.5095C39.4536 11.6101 31.4285 3.58496 21.529 3.58496C11.6295 3.58496 3.60443 11.6101 3.60443 21.5095C3.60443 31.409 11.6295 39.4341 21.529 39.4341Z" fill="white"/>
<path d="M28.179 28.5538C27.946 28.5538 27.713 28.5 27.4979 28.3566L21.9413 25.0406C20.5611 24.216 19.5394 22.4056 19.5394 20.8104V13.4613C19.5394 12.7264 20.1488 12.1169 20.8837 12.1169C21.6186 12.1169 22.2281 12.7264 22.2281 13.4613V20.8104C22.2281 21.4556 22.7658 22.4056 23.3215 22.7283L28.8781 26.0443C29.5234 26.4208 29.7206 27.2453 29.3441 27.8906C29.0753 28.3208 28.6272 28.5538 28.179 28.5538Z" fill="white"/>
</svg>
