<svg width="44" height="44" viewBox="0 0 44 44" fill="none" xmlns="http://www.w3.org/2000/svg">
<path opacity="0.4" d="M7.22805 26.2773L4.50354 23.5528C3.39221 22.4415 3.39221 20.6132 4.50354 19.5019L7.22805 16.7773C7.69409 16.3113 8.07051 15.3971 8.07051 14.7518V10.8981C8.07051 9.32074 9.36109 8.0301 10.9385 8.0301H14.7922C15.4375 8.0301 16.3517 7.65374 16.8177 7.1877L19.5422 4.46313C20.6535 3.35181 22.4819 3.35181 23.5932 4.46313L26.3178 7.1877C26.7838 7.65374 27.6979 8.0301 28.3432 8.0301H32.197C33.7744 8.0301 35.0649 9.32074 35.0649 10.8981V14.7518C35.0649 15.3971 35.4413 16.3113 35.9074 16.7773L38.6319 19.5019C39.7433 20.6132 39.7433 22.4415 38.6319 23.5528L35.9074 26.2773C35.4413 26.7433 35.0649 27.6575 35.0649 28.3028V32.1566C35.0649 33.734 33.7744 35.0245 32.197 35.0245H28.3432C27.6979 35.0245 26.7838 35.401 26.3178 35.867L23.5932 38.5916C22.4819 39.7029 20.6535 39.7029 19.5422 38.5916L16.8177 35.867C16.3517 35.401 15.4375 35.0245 14.7922 35.0245H10.9385C9.36109 35.0245 8.07051 33.734 8.07051 32.1566V28.3028C8.07051 27.6396 7.69409 26.7254 7.22805 26.2773Z" fill="white"/>
<path d="M26.963 28.6794C25.9592 28.6794 25.1526 27.8728 25.1526 26.8869C25.1526 25.9011 25.9592 25.0945 26.9451 25.0945C27.9309 25.0945 28.7375 25.9011 28.7375 26.8869C28.7375 27.8728 27.9489 28.6794 26.963 28.6794Z" fill="white"/>
<path d="M16.2262 17.9245C15.2225 17.9245 14.4158 17.1179 14.4158 16.1321C14.4158 15.1462 15.2224 14.3396 16.2083 14.3396C17.1941 14.3396 18.0007 15.1462 18.0007 16.1321C18.0007 17.1179 17.2121 17.9245 16.2262 17.9245Z" fill="white"/>
<path d="M16.2083 28.2312C15.8677 28.2312 15.5272 28.1058 15.2583 27.8369C14.7385 27.3171 14.7385 26.4567 15.2583 25.9368L26.013 15.1821C26.5329 14.6623 27.3932 14.6623 27.913 15.1821C28.4329 15.7019 28.4329 16.5624 27.913 17.0822L17.1583 27.8369C16.8894 28.1058 16.5489 28.2312 16.2083 28.2312Z" fill="white"/>
</svg>
