<svg width="44" height="44" viewBox="0 0 44 44" fill="none" xmlns="http://www.w3.org/2000/svg">
<path d="M21.868 10.5218C21.7425 10.5218 21.6171 10.5218 21.5095 10.5397V3.60288C21.635 3.58495 21.7425 3.58496 21.868 3.58496C25.919 3.58496 29.3963 4.82176 32.2463 6.91893C33.1426 7.56422 33.2143 8.87272 32.4256 9.64348L29.9341 12.0812C29.3246 12.6727 28.3926 12.7803 27.6935 12.2963C26.3492 11.3642 24.4312 10.5218 21.868 10.5218Z" fill="white"/>
<path d="M39.0756 21.9037C39.0756 27.3707 37.1218 31.9594 33.7341 35.0962C30.7765 37.8386 26.7076 39.4339 21.868 39.4339C21.7425 39.4339 21.635 39.4339 21.5095 39.416V32.4792C21.635 32.4971 21.7425 32.4971 21.868 32.4971C24.5388 32.4971 26.5642 31.7622 28.0878 30.7047C30.4718 29.0377 31.5473 26.5462 31.7445 24.8971H23.6605C22.6746 24.8971 21.868 24.0905 21.868 23.1046V20.0395C21.868 19.0537 22.6746 18.2471 23.6605 18.2471H37.1935C38.1077 18.2471 38.8784 18.9282 38.9681 19.8424C39.0398 20.4697 39.0756 21.1329 39.0756 21.9037Z" fill="white"/>
<path opacity="0.4" d="M11.6509 17.9604C11.2924 19.0717 11.0773 20.2726 11.0773 21.5094C11.0773 22.7462 11.2924 23.9293 11.6689 25.0585C13.067 29.2708 16.9387 32.3359 21.5094 32.4793V39.4161C14.6623 39.2906 8.76507 35.3114 5.87922 29.5576H5.86129C4.64242 27.1198 3.94336 24.3953 3.94336 21.5094C3.94336 18.6236 4.64242 15.899 5.86129 13.4613C8.74714 7.70751 14.6443 3.72826 21.5094 3.60278V10.5396C17.2792 10.6651 13.6764 13.2821 12.0273 16.9924C11.8839 17.3151 11.7585 17.6377 11.6509 17.9604Z" fill="white"/>
</svg>
