<svg width="25" height="25" viewBox="0 0 25 25" fill="none" xmlns="http://www.w3.org/2000/svg">
<path fill-rule="evenodd" clip-rule="evenodd" d="M12.6038 3.1582C10.1594 3.1582 9.85336 3.1684 8.89336 3.2122C7.93516 3.256 7.28056 3.4084 6.70816 3.631C6.10816 3.8566 5.56396 4.2106 5.11396 4.669C4.65629 5.11848 4.30207 5.6623 4.07596 6.2626C3.85456 6.835 3.70156 7.4902 3.65776 8.4484C3.61456 9.4078 3.60376 9.7132 3.60376 12.1582C3.60376 14.6032 3.61396 14.9086 3.65776 15.8686C3.70156 16.8268 3.85396 17.4814 4.07656 18.0538C4.30216 18.6538 4.65616 19.198 5.11456 19.648C5.56405 20.1057 6.10787 20.4599 6.70816 20.686C7.28056 20.908 7.93516 21.0604 8.89336 21.1042C9.85336 21.148 10.1594 21.1582 12.6038 21.1582C15.0482 21.1582 15.3542 21.148 16.3142 21.1042C17.2724 21.0604 17.927 20.908 18.4994 20.6854C19.0994 20.4598 19.6436 20.1058 20.0936 19.6474C20.5512 19.1979 20.9054 18.6541 21.1316 18.0538C21.3536 17.4814 21.506 16.8268 21.5498 15.8686C21.5936 14.9086 21.6038 14.6026 21.6038 12.1582C21.6038 9.7138 21.5936 9.4078 21.5498 8.4478C21.506 7.4896 21.3536 6.835 21.131 6.2626C20.905 5.66204 20.5508 5.118 20.093 4.6684C19.6435 4.21074 19.0997 3.85652 18.4994 3.6304C17.927 3.409 17.2718 3.256 16.3136 3.2122C15.3542 3.169 15.0488 3.1582 12.6038 3.1582ZM12.6038 4.78C15.0068 4.78 15.2918 4.789 16.241 4.8322C17.1182 4.8724 17.5946 5.0182 17.912 5.1424C18.332 5.305 18.632 5.5006 18.947 5.815C19.262 6.13 19.457 6.43 19.6196 6.85C19.7432 7.1674 19.8896 7.6438 19.9298 8.521C19.973 9.4702 19.982 9.7552 19.982 12.1582C19.982 14.5612 19.973 14.8462 19.9298 15.7954C19.8896 16.6726 19.7438 17.149 19.6196 17.4664C19.4755 17.8573 19.2457 18.211 18.947 18.5014C18.6566 18.8002 18.3029 19.03 17.912 19.174C17.5946 19.2976 17.1182 19.444 16.241 19.4842C15.2918 19.5274 15.0074 19.5364 12.6038 19.5364C10.2002 19.5364 9.91576 19.5274 8.96656 19.4842C8.08936 19.444 7.61296 19.2982 7.29556 19.174C6.90463 19.03 6.55096 18.8001 6.26056 18.5014C5.96187 18.211 5.73204 17.8573 5.58796 17.4664C5.46436 17.149 5.31796 16.6726 5.27776 15.7954C5.23456 14.8462 5.22556 14.5612 5.22556 12.1582C5.22556 9.7552 5.23456 9.4702 5.27776 8.521C5.31796 7.6438 5.46376 7.1674 5.58796 6.85C5.75056 6.43 5.94616 6.13 6.26056 5.815C6.55092 5.51623 6.90461 5.28639 7.29556 5.1424C7.61296 5.0188 8.08936 4.8724 8.96656 4.8322C9.91576 4.789 10.2008 4.78 12.6038 4.78Z" fill="#F8ECE8"/>
<path fill-rule="evenodd" clip-rule="evenodd" d="M12.6038 15.1612C12.2094 15.1612 11.8189 15.0836 11.4546 14.9326C11.0902 14.7817 10.7592 14.5605 10.4803 14.2817C10.2015 14.0028 9.98029 13.6718 9.82937 13.3074C9.67846 12.9431 9.60078 12.5526 9.60078 12.1582C9.60078 11.7639 9.67846 11.3734 9.82937 11.009C9.98029 10.6447 10.2015 10.3136 10.4803 10.0348C10.7592 9.75594 11.0902 9.53474 11.4546 9.38383C11.8189 9.23291 12.2094 9.15524 12.6038 9.15524C13.4002 9.15524 14.1641 9.47162 14.7272 10.0348C15.2904 10.598 15.6068 11.3618 15.6068 12.1582C15.6068 12.9547 15.2904 13.7185 14.7272 14.2817C14.1641 14.8448 13.4002 15.1612 12.6038 15.1612ZM12.6038 7.53224C11.3769 7.53224 10.2002 8.01962 9.33271 8.88716C8.46516 9.7547 7.97778 10.9313 7.97778 12.1582C7.97778 13.3851 8.46516 14.5618 9.33271 15.4293C10.2002 16.2969 11.3769 16.7842 12.6038 16.7842C13.8307 16.7842 15.0073 16.2969 15.8749 15.4293C16.7424 14.5618 17.2298 13.3851 17.2298 12.1582C17.2298 10.9313 16.7424 9.7547 15.8749 8.88716C15.0073 8.01962 13.8307 7.53224 12.6038 7.53224ZM18.5756 7.44824C18.5756 7.73825 18.4604 8.01639 18.2553 8.22146C18.0502 8.42653 17.7721 8.54174 17.4821 8.54174C17.1921 8.54174 16.9139 8.42653 16.7089 8.22146C16.5038 8.01639 16.3886 7.73825 16.3886 7.44824C16.3886 7.15822 16.5038 6.88009 16.7089 6.67502C16.9139 6.46994 17.1921 6.35474 17.4821 6.35474C17.7721 6.35474 18.0502 6.46994 18.2553 6.67502C18.4604 6.88009 18.5756 7.15822 18.5756 7.44824Z" fill="#F8ECE8"/>
</svg>
