<svg width="25" height="25" viewBox="0 0 25 25" fill="none" xmlns="http://www.w3.org/2000/svg">
<path d="M21.6038 4.48173V19.8347C21.6038 20.1857 21.4643 20.5223 21.2161 20.7706C20.9679 21.0188 20.6313 21.1582 20.2802 21.1582H4.92729C4.57627 21.1582 4.23962 21.0188 3.99141 20.7706C3.7432 20.5223 3.60376 20.1857 3.60376 19.8347V4.48173C3.60376 4.13071 3.7432 3.79407 3.99141 3.54586C4.23962 3.29765 4.57627 3.1582 4.92729 3.1582H20.2802C20.6313 3.1582 20.9679 3.29765 21.2161 3.54586C21.4643 3.79407 21.6038 4.13071 21.6038 4.48173ZM8.89788 10.0406H6.25082V18.5111H8.89788V10.0406ZM9.13611 7.12879C9.13751 6.92856 9.09945 6.73002 9.02411 6.5445C8.94878 6.35898 8.83763 6.19012 8.69703 6.04755C8.55644 5.90498 8.38913 5.79151 8.20467 5.7136C8.02022 5.63569 7.82222 5.59488 7.622 5.5935H7.57435C7.16716 5.5935 6.77665 5.75525 6.48873 6.04317C6.20081 6.3311 6.03905 6.72161 6.03905 7.12879C6.03905 7.53598 6.20081 7.92649 6.48873 8.21441C6.77665 8.50233 7.16716 8.66409 7.57435 8.66409C7.77459 8.66901 7.97384 8.63443 8.16072 8.56233C8.34759 8.49022 8.51843 8.382 8.66346 8.24385C8.8085 8.1057 8.92489 7.94032 9.00599 7.75717C9.08709 7.57402 9.13131 7.37668 9.13611 7.17644V7.12879ZM18.9567 13.3653C18.9567 10.8188 17.3367 9.82879 15.7273 9.82879C15.2003 9.80241 14.6757 9.91464 14.2056 10.1543C13.7356 10.394 13.3366 10.7527 13.0485 11.1947H12.9743V10.0406H10.4861V18.5111H13.1332V14.0059C13.0949 13.5444 13.2403 13.0866 13.5376 12.7317C13.835 12.3768 14.2604 12.1536 14.7214 12.1106H14.822C15.6638 12.1106 16.2885 12.64 16.2885 13.9741V18.5111H18.9355L18.9567 13.3653Z" fill="#F8ECE8"/>
</svg>
