<svg width="44" height="44" viewBox="0 0 44 44" fill="none" xmlns="http://www.w3.org/2000/svg">
<path opacity="0.4" d="M36.9986 15.1462C35.1165 6.86503 27.8929 3.13672 21.5476 3.13672C21.5476 3.13672 21.5476 3.13672 21.5296 3.13672C15.2023 3.13672 7.96075 6.8471 6.07867 15.1283C3.98149 24.3773 9.64566 32.2104 14.7721 37.1396C16.6721 38.9679 19.1098 39.8821 21.5476 39.8821C23.9853 39.8821 26.4231 38.9679 28.3051 37.1396C33.4316 32.2104 39.0957 24.3953 36.9986 15.1462Z" fill="white"/>
<path d="M21.5476 24.1265C24.6659 24.1265 27.1938 21.5986 27.1938 18.4802C27.1938 15.3619 24.6659 12.834 21.5476 12.834C18.4292 12.834 15.9013 15.3619 15.9013 18.4802C15.9013 21.5986 18.4292 24.1265 21.5476 24.1265Z" fill="white"/>
</svg>
