<svg width="128" height="81" viewBox="0 0 128 81" fill="none" xmlns="http://www.w3.org/2000/svg">
<g opacity="0.4" clip-path="url(#clip0_1_538)">
<path d="M55.3086 -9.97298L30.8148 36.8919L18.5679 40.0425C19.8848 37.1544 21.465 34.7915 23.3086 32.9537C25.4156 31.1158 27.786 30.1969 30.4198 30.1969C35.9506 30.1969 40.9547 32.4286 45.4321 36.8919C50.1728 41.3552 52.5432 47.1313 52.5432 54.2201C52.5432 61.3089 49.9095 67.6101 44.642 73.1236C39.6379 78.3745 33.5802 81 26.4691 81C19.358 81 13.1687 78.3745 7.90123 73.1236C2.63374 67.8726 0 61.5714 0 54.2201C0 51.0695 0.658436 47.5251 1.97531 43.5869C3.29218 39.3861 5.53087 34.1351 8.69136 27.834L35.1605 -21L55.3086 -9.97298ZM128 -9.97298L103.506 36.8919L91.2593 40.0425C92.5761 37.1544 94.1564 34.7915 96 32.9537C98.107 31.1158 100.477 30.1969 103.111 30.1969C108.642 30.1969 113.646 32.4286 118.123 36.8919C122.864 41.3552 125.235 47.1313 125.235 54.2201C125.235 61.3089 122.601 67.6101 117.333 73.1236C112.329 78.3745 106.272 81 99.1605 81C92.0494 81 85.8601 78.3745 80.5926 73.1236C75.3251 67.8726 72.6914 61.5714 72.6914 54.2201C72.6914 51.0695 73.3498 47.5251 74.6667 43.5869C75.9835 39.3861 78.2222 34.1351 81.3827 27.834L107.852 -21L128 -9.97298Z" fill="#FF6737"/>
</g>
<defs>
<clipPath id="clip0_1_538">
<rect width="128" height="81" fill="white"/>
</clipPath>
</defs>
</svg>
