<svg width="303" height="226" viewBox="0 0 303 226" fill="none" xmlns="http://www.w3.org/2000/svg">
<g clip-path="url(#clip0_1_521)">
<g filter="url(#filter0_d_1_521)">
<path d="M78.5303 214.614C80.0043 213.823 80.6025 212.37 81.3288 211.046C89.7245 195.579 99.4234 180.945 109.784 166.739C112.54 162.958 115.681 159.646 119.74 157.318C127.623 152.789 135.249 154.113 141.188 160.992C141.68 161.548 142.15 162.124 142.62 162.68C143.709 162.124 143.944 161.12 144.478 160.373C145.803 158.471 147.255 156.677 149.114 155.288C150.737 154.092 152.489 153.259 154.433 154.498C156.377 155.737 156.441 157.702 155.886 159.646C155.224 161.954 154.412 164.218 153.515 166.44C148.238 179.364 144.307 192.695 142.021 206.474C141.316 210.704 140.804 214.977 141.808 219.506C144.179 218.459 145.461 216.664 146.721 214.913C151.336 208.482 154.455 201.219 157.851 194.126C162.167 185.132 166.439 176.16 168.939 166.397C170.285 161.12 172.528 156.057 175.476 151.4C176.416 149.905 177.42 148.324 179.492 148.73C181.714 149.157 182.462 150.952 182.782 152.96C183.338 156.463 182.462 159.839 181.735 163.214C179.706 172.785 176.651 182.142 175.455 191.883C175.027 195.408 174.728 198.954 174.856 202.522C174.899 203.932 174.899 205.363 175.647 206.773C178.189 206.09 179.642 204.274 181.116 202.565C184.79 198.207 187.589 193.272 190.174 188.23C192.887 182.932 195.514 177.613 198.249 172.315C199.103 170.67 199.873 169.089 199.403 167.145C199.146 166.077 199.467 165.008 200.62 164.496C201.817 163.962 202.671 164.645 203.376 165.478C205.021 167.465 206.431 169.708 209.422 169.965C210.554 168.662 210.789 166.995 211.409 165.521C214.485 158.215 218.565 151.699 225.444 147.363C227.58 146.017 229.781 144.884 232.43 145.077C235.25 145.29 236.809 146.85 236.873 149.67C237.002 155.032 234.31 159.198 231.084 163.086C229.055 165.543 226.683 167.657 224.12 169.516C223.244 170.157 222.539 170.819 222.24 171.951C220.552 178.681 219.185 185.432 219.249 192.417C219.249 193.742 219.484 195.088 219.74 196.412C220.146 198.527 221.471 199.232 223.543 198.783C226.128 198.228 228.392 197.01 230.614 195.643C231.597 195.024 232.473 194.297 233.455 193.678C239.373 189.939 241.958 185.261 242.214 177.57C243.005 153.836 250.503 131.81 262.68 111.451C266.718 104.722 272.101 99.082 278.745 94.788C280.924 93.3781 283.231 92.1817 285.923 92.0536C289.704 91.8826 291.905 93.784 292.161 97.5866C292.674 104.893 291.285 111.943 288.892 118.779C282.761 136.296 273.362 152.127 263 167.422C259.775 172.186 256.25 176.758 252.682 181.287C251.229 183.146 250.482 185.004 250.546 187.333C250.653 190.687 250.695 194.062 251.742 197.309C253.067 201.39 255.438 202.372 259.241 200.322C262.402 198.613 264.966 196.113 267.529 193.656C271.204 190.131 274.707 186.436 277.698 182.291C278.232 181.543 278.724 180.796 279.749 181.18C280.732 181.565 280.817 182.505 280.646 183.381C280.518 184.128 280.283 184.897 279.877 185.517C276.267 191.071 272.657 196.647 267.999 201.411C264.944 204.552 261.377 206.987 256.827 207.436C251.956 207.906 248.58 205.556 246.124 201.561C244.585 199.083 243.902 196.284 243.026 193.507C241.787 193.678 241.296 194.725 240.591 195.429C236.403 199.617 231.832 203.206 226.192 205.257C218.971 207.884 213.011 205.491 209.721 198.57C206.666 192.161 206.559 185.41 207.627 178.553C207.777 177.527 207.969 176.502 208.161 175.348C206.132 174.472 204.081 174.024 202.329 172.721C199.36 178.788 196.519 184.641 193.613 190.452C190.473 196.733 187.14 202.885 182.697 208.376C180.24 211.43 177.527 214.357 173.083 213.439C168.618 212.52 166.973 208.845 165.692 205C164.26 200.706 164.047 196.241 163.449 191.605C162.53 193.763 161.569 195.899 160.671 198.057C158.172 203.975 155.736 209.935 152.703 215.618C151.293 218.245 149.733 220.787 147.576 222.881C142.278 228.03 136.723 226.812 134.117 219.954C133.07 217.241 132.622 214.4 132.408 211.516C131.831 203.526 132.344 195.6 133.925 187.739C134.053 187.119 134.395 186.5 133.882 185.517C131.938 188.187 130.122 190.73 128.264 193.229C124.931 197.694 121.641 202.202 117.283 205.748C110.34 211.409 103.952 209.209 101.859 200.535C100.94 196.69 101.346 192.802 100.791 188.743C98.5048 192.78 96.1335 196.797 93.9758 200.898C92.1386 204.381 90.5791 207.991 88.8273 211.516C87.8873 213.417 86.926 215.297 85.8578 217.113C83.871 220.467 81.4143 223.415 77.0349 222.881C72.4845 222.326 70.455 218.801 69.3655 214.87C67.0583 206.624 68.2119 198.506 70.6687 190.495C72.7195 183.744 76.1376 177.613 79.278 171.353C80.1539 169.602 81.3716 167.914 81.222 165.286C75.5181 166.504 70.1346 171.909 64.3452 166.504C63.2984 167.38 63.2343 168.512 62.8925 169.473C57.979 183.317 52.6382 196.989 46.7207 210.426C45.1825 213.951 43.4094 217.369 40.9313 220.339C34.6292 227.965 25.7848 227.624 20.1877 219.484C16.1501 213.631 14.6974 206.88 13.7574 199.98C12.732 192.332 13.0738 184.662 13.8001 177.228C13.2233 176.374 12.4543 176.459 11.8775 176.16C11.1725 175.818 10.4889 175.434 10.4248 174.536C10.3607 173.618 10.8948 173.02 11.6852 172.827C14.4624 172.144 14.8469 170.029 15.2742 167.636C17.261 156.164 20.5722 145.055 24.4176 134.075C24.7594 133.113 25.3789 132.195 25.1867 130.913C20.5509 130.336 15.8724 129.845 11.3861 128.414C7.79712 127.26 4.27222 125.935 1.87955 122.795C0.362774 120.808 -0.555838 118.629 0.490952 116.108C0.918214 115.062 1.6232 114.271 2.81953 114.25C4.12268 114.207 4.72084 115.126 4.93447 116.237C5.42582 118.886 7.19896 120.402 9.48481 121.406C14.441 123.564 19.6109 124.953 24.9944 125.551C26.9812 125.786 28.092 125.188 28.9466 123.222C30.6556 119.249 32.8774 115.532 35.74 112.242C36.68 111.152 37.7268 110.127 38.8804 109.294C44.563 105.085 50.096 107.499 50.7369 114.549C50.9933 117.39 50.7796 120.253 50.7796 123.393C56.5049 122.667 62.0593 121.855 67.6565 121.3C81.4357 119.954 95.2148 118.907 108.909 122.154C113.715 123.308 118.33 124.931 121.299 129.503C134.245 123.863 147.747 124.376 161.312 125.23C175.604 126.128 189.896 126.961 204.188 126.128C209.55 125.829 214.869 124.974 220.189 124.355C221.513 124.205 223.073 123.607 223.5 125.487C223.927 127.324 222.411 128.008 221.001 128.456C216.322 129.909 211.409 130.358 206.645 131.468C189.96 135.357 173.297 134.139 156.548 131.789C146.123 130.336 135.591 128.862 125.123 131.938C123.158 132.515 121.256 132.857 120.381 135.1C119.996 136.083 118.885 136.531 117.86 136.873C116.727 137.258 115.681 137.066 115.018 136.126C114.249 135.036 114.57 133.904 115.531 133.028C116.3 132.323 117.176 131.703 118.095 130.977C117.304 128.734 115.253 128.05 113.309 127.345C107.435 125.252 101.282 124.974 95.1294 124.974C80.4102 124.974 65.8406 126.854 51.271 128.67C49.4765 128.905 48.9424 129.952 48.5365 131.447C46.3788 139.33 43.5589 146.978 39.7563 154.241C35.9109 161.569 30.9761 167.978 24.2253 172.891C23.4135 173.468 22.7086 174.066 22.6017 175.135C21.4054 186.329 20.2518 197.523 23.1572 208.632C23.7553 210.96 24.6312 213.204 25.8917 215.276C28.7329 219.933 32.0015 220.317 35.8896 216.429C38.3677 213.951 40.0126 210.896 41.5508 207.799C46.2934 198.143 50.0533 188.059 54.1123 178.125C55.3086 175.199 56.4195 172.229 57.6158 169.302C59.4958 164.709 61.0553 160.223 60.8416 154.946C60.5426 147.363 64.6015 140.996 68.9169 135.036C70.455 132.9 72.7836 133.455 73.7236 136.04C74.5781 138.369 74.3217 140.783 73.9372 143.154C73.1468 148.089 72.1427 152.96 72.2495 158.001C72.2923 160.522 73.0827 161.783 75.8172 161.355C77.4194 161.099 79.0644 160.949 80.6879 160.971C84.9178 160.992 87.0114 163.193 87.0755 167.422C87.1182 170.947 86.0287 174.237 84.9178 177.506C82.3756 184.855 79.4062 192.054 78.103 199.766C77.4194 203.761 77.0349 207.756 77.5903 211.794C77.7398 212.819 77.6758 213.93 78.5516 214.784L78.5303 214.614ZM252.105 173.831C253.302 173.361 253.686 172.421 254.242 171.695C263.406 159.582 271.845 147.021 279.087 133.669C283.723 125.124 287.333 116.151 288.892 106.495C289.384 103.397 289.854 100.15 288.209 96.9671C285.859 97.8857 284.513 99.3597 283.21 100.877C280.646 103.889 278.531 107.221 276.651 110.682C267.423 127.687 260.074 145.483 254.284 163.94C253.302 167.102 252.404 170.328 252.084 173.831H252.105ZM109.357 198.079C109.357 198.741 109.314 199.424 109.357 200.087C109.614 203.441 110.596 203.953 113.566 202.266C115.51 201.176 117.176 199.723 118.778 198.207C125.08 192.246 130.464 185.517 135.741 178.681C137.706 176.139 138.24 172.891 139.458 169.986C139.885 169.003 139.287 168.149 138.774 167.316C134.566 160.437 127.131 159.71 121.833 166.141C114.228 175.348 110.81 186.372 109.357 198.079ZM42.4053 129.952C40.2904 130.101 38.2181 130.315 36.1246 130.358C34.0096 130.4 32.8774 131.298 32.3006 133.391C30.677 139.309 28.7543 145.141 27.1521 151.058C26.3189 154.135 25.3576 157.232 25.1439 160.672C31.8306 154.434 41.7003 136.852 42.3839 129.952H42.4053ZM35.3341 125.337C38.2822 125.038 40.5467 124.803 42.8112 124.547C43.4521 124.461 44.3921 124.525 44.563 123.799C45.4816 120.231 46.3788 116.621 44.6057 112.455C39.7563 115.532 37.9404 120.274 35.3128 125.337H35.3341ZM223.778 166.055C230.571 161.954 234.951 154.049 233.156 149.285C226.94 153.024 226.683 159.817 223.778 166.055Z" fill="#FFF3ED"/>
<path d="M184.919 33.0915C185.538 30.3357 186.051 27.9003 186.649 25.5077C188.55 17.8169 191.499 10.5535 195.793 3.86686C196.455 2.82007 197.224 1.816 198.078 0.940118C198.933 0.0642322 200.044 -0.277577 201.24 0.2565C202.436 0.790577 202.864 1.79464 202.864 3.05506C202.864 6.06726 202.031 8.92991 201.326 11.8139C198.591 23.2004 196.006 34.6297 195.13 46.3367C194.831 50.4597 194.532 54.5828 195.323 58.6845C195.857 61.419 196.754 61.7608 198.997 60.0945C202.65 57.36 205.555 53.9206 207.884 50.0111C208.546 48.8789 208.61 47.6612 208.674 46.4007C208.888 42.1495 209.657 38.0264 211.452 34.117C212.135 32.6216 212.968 31.233 214.208 30.1221C215.318 29.1394 216.579 28.8403 217.946 29.4171C219.292 29.9725 219.655 31.1902 219.591 32.5147C219.463 34.9074 219.292 37.3001 219.121 39.6927C218.758 44.884 218.672 50.0752 219.933 55.1596C220.873 58.9195 222.39 59.3681 224.889 56.5268C228.414 52.5319 231.341 48.2166 231.341 42.4913C231.341 40.12 231.811 37.7273 232.238 35.3774C232.516 33.7965 232.858 31.9593 235.101 32.0875C237.109 32.2157 237.386 33.8606 237.579 35.4201C238.262 40.9318 238.796 46.4862 239.651 51.9765C240.42 56.89 241.616 61.7608 242.535 66.6529C242.813 68.1697 243.432 68.6397 245.034 68.5756C249.243 68.4261 253.473 68.5115 257.703 68.5329C258.472 68.5329 259.241 68.6611 259.989 68.8106C260.864 68.9815 261.74 69.3447 261.676 70.4342C261.612 71.6733 260.672 71.8869 259.625 71.9724C255.032 72.3355 250.461 72.7414 245.868 73.126C245.398 73.1687 244.949 73.2969 244.201 73.4464C244.714 76.7363 245.269 79.9194 245.718 83.1025C246.658 89.7037 246.936 96.3049 245.44 102.863C243.603 110.96 236.981 117.711 230.08 118.672C220.809 119.954 211.516 111.473 212.349 102.009C213.545 88.3578 219.719 77.7617 232.537 71.7374C233.541 71.2674 234.759 71.0324 234.417 69.3661C233.456 64.5807 232.558 59.7954 231.554 54.5187C228.799 59.2613 226.79 64.5807 220.723 64.8371C214.464 65.0934 211.922 60.3081 209.593 55.1382C208.055 57.0823 206.752 58.9195 205.278 60.5645C203.804 62.2094 202.266 63.7903 200.578 65.2216C196.668 68.5329 192.567 68.1056 189.277 64.1535C187.461 61.9744 186.436 59.3895 185.581 56.7191C185.325 55.9073 185.325 55.0101 184.556 54.2196C182.612 58.3427 180.967 62.5512 178.617 66.3966C177.42 68.362 176.16 70.306 174.515 71.9296C169.943 76.4372 164.367 75.7109 161.013 70.1992C159.539 67.7852 159.091 65.0294 158.343 61.889C156.655 64.4312 155.288 66.6743 153.75 68.8106C149.242 75.0273 142.833 74.6 139.074 67.9134C137.535 65.2003 136.98 62.1667 136.446 59.0904C135.121 59.475 135.036 60.6713 134.566 61.5258C132.066 66.1616 129.738 70.9042 127.153 75.4973C125.658 78.1463 123.671 80.4535 120.146 80.133C116.749 79.834 114.997 77.4199 113.587 74.7068C111.729 71.1178 111.451 67.187 111.131 63.0639C109.892 63.4698 109.721 64.6021 109.293 65.4352C106.879 70.1351 104.658 74.9205 102.115 79.5349C100.001 83.3589 97.4583 87.0974 92.3312 86.8838C87.0759 86.6488 83.9355 83.1025 81.9914 78.7872C76.1166 65.7343 77.2916 52.831 83.6791 40.2482C85.025 37.5992 86.6272 35.0569 88.8063 32.9847C91.3271 30.5921 94.2325 29.2676 97.736 30.3784C101.026 31.4252 102.479 34.0956 103.205 37.236C105.384 46.6357 100.193 56.6978 91.3485 60.4363C89.789 61.0985 88.1654 60.9063 86.3281 61.3763C86.0291 67.5502 86.4136 73.6387 89.4258 79.1931C91.4126 82.8675 93.8479 82.9743 96.6892 79.8126C99.5305 76.6509 101.496 72.8696 103.483 69.1524C107.114 62.4231 111.131 55.886 114.122 48.772C117.54 40.6327 124.803 36.4456 132.045 37.7701C134.651 38.2401 136.852 39.5432 138.945 41.53C140.227 39.4364 141.231 37.471 142.898 35.9969C144.372 34.7151 145.974 33.9461 147.897 34.9288C149.841 35.9115 150.182 37.6846 149.819 39.6073C148.986 43.944 147.918 48.238 147.213 52.5747C146.209 58.5777 146.551 63.363 147.875 66.4607C149.328 66.5034 150.054 65.3712 150.823 64.4739C153.323 61.5472 155.053 58.0863 157.168 54.946C159.625 51.3143 160.373 47.1057 162.53 43.4526C164.261 40.5473 166.077 37.7487 168.576 35.4415C173.297 31.0407 178.617 30.1221 184.897 33.0061L184.919 33.0915ZM235.72 75.5613C225.231 80.7312 218.865 88.5928 216.045 99.4239C215.511 101.496 215.447 103.59 216.066 105.662C217.369 109.999 220.082 113.16 224.462 114.378C228.585 115.532 231.661 113.267 234.353 110.447C236.34 108.375 237.386 105.833 238.006 103.077C240.1 93.8695 237.899 85.0252 235.72 75.5613ZM165.927 63.4271C165.927 63.8117 165.884 64.1962 165.927 64.5807C166.119 66.482 165.991 68.7465 168.063 69.5583C170.221 70.3915 171.588 68.5329 172.849 67.1229C173.917 65.9052 174.857 64.5594 175.733 63.1921C178.531 58.8127 180.732 54.1342 182.932 49.4557C183.765 47.6825 184.171 45.8667 184.15 43.9013C184.15 39.8209 180.454 37.4496 176.694 39.2228C175.177 39.9277 174.045 41.1241 173.126 42.4913C168.79 48.7934 166.653 55.886 165.906 63.4485L165.927 63.4271ZM121.342 75.3263C122.111 75.2623 122.645 74.835 123.073 74.3223C128.285 67.9988 132.408 60.9704 136.083 53.7069C137.813 50.2888 136.638 47.298 133.925 45.6744C131.062 43.9867 127.516 44.649 125.145 47.4689C124.162 48.6225 123.329 49.9684 122.688 51.3356C119.825 57.4882 118.992 64.0039 119.505 70.6906C119.633 72.3355 119.719 74.1727 121.342 75.305V75.3263ZM86.67 56.4841C93.8479 54.3051 98.8896 46.5503 98.0778 39.6073C97.9283 38.2828 97.9069 36.6592 96.4756 36.1678C94.8093 35.591 93.8266 37.0651 93.0362 38.1973C89.2549 43.5808 87.8022 49.7761 86.6913 56.4841H86.67Z" fill="#FFF3ED"/>
<path d="M15.4237 42.8117C16.8337 40.0345 17.8377 37.8982 18.9913 35.8259C23.1571 28.3489 28.9679 22.7517 37.1927 19.9104C48.7287 15.9369 59.8162 21.7049 62.0166 33.6683C64.4947 47.1484 62.2729 59.8594 52.9159 70.605C52.1682 71.4809 51.6128 72.1005 52.3818 73.2968C55.0522 77.5267 56.804 82.2265 58.9403 86.7342C61.4398 92.0536 64.4947 97.0525 68.2546 101.56C69.5364 103.098 70.9463 104.594 72.5058 105.833C79.0643 111.088 84.8751 110.469 90.2158 103.974C92.8435 100.791 95.2362 97.4157 97.3084 93.8481C97.8852 92.8654 98.5474 91.904 98.5261 90.665C98.5261 89.4259 99.0601 88.5928 100.406 88.6355C101.624 88.6568 102.329 89.4259 102.585 90.5795C102.884 91.9254 102.735 93.2499 102.158 94.5103C99.3379 100.663 95.7702 106.345 90.8994 111.067C86.1996 115.596 80.5597 116.066 74.5353 114.25C70.0064 112.883 66.2892 110.234 62.9565 106.965C56.0563 100.236 50.8223 92.3954 47.1692 83.487C46.2933 81.372 45.567 79.193 44.0716 77.0994C40.7603 78.3812 37.3636 79.1503 33.7532 78.9366C29.3952 78.6803 26.1266 76.6081 24.7807 72.9336C23.328 69.0028 24.3748 63.7902 27.2375 61.1839C29.9506 58.7272 33.1764 58.7058 36.445 59.5817C40.5253 60.6926 43.8152 63.192 46.9342 65.9906C48.4083 65.1788 49.0919 63.7688 49.7328 62.423C53.685 54.2409 55.1163 45.6102 53.6209 36.6591C52.1468 27.9216 46.1011 24.6317 37.7268 27.5157C33.0055 29.1393 29.2456 32.1088 26.5539 36.1891C20.2518 45.717 16.0432 55.9286 16.5773 67.6997C16.9618 76.1381 16.7696 84.5978 15.616 92.9935C15.5519 93.4635 15.5519 93.9549 15.4451 94.4249C15.0178 96.198 14.7614 98.3343 12.2833 98.1207C9.89066 97.9071 9.82657 95.9203 9.67703 94.019C8.13889 74.4931 7.92526 54.9032 7.24164 35.3346C7.15619 33.0274 7.263 30.7415 7.32709 28.4343C7.36982 26.8321 7.58345 25.1658 9.50613 24.8667C11.557 24.5676 12.3261 26.1698 12.8815 27.7721C14.1633 31.532 14.4837 35.4628 14.9537 39.3508C15.0605 40.2481 15.2101 41.1667 15.4451 42.7476L15.4237 42.8117ZM40.6321 71.5236C38.389 68.4046 35.7613 66.0974 32.1937 64.8797C31.1683 64.5379 30.271 64.7088 29.5447 65.4352C27.9211 67.0374 27.2802 68.9174 28.0279 71.1605C28.7329 73.2327 30.2497 74.194 32.3646 74.2368C35.3127 74.3008 37.9404 73.3181 40.6108 71.545L40.6321 71.5236Z" fill="#FFF3ED"/>
<path d="M169.11 115.852C162.808 115.895 158.108 111.28 158.13 105.085C158.13 98.7189 163.62 92.2032 169.303 92.7586C175.284 93.3568 181.608 96.6467 181.843 104.06C182.035 110.383 176.117 115.809 169.132 115.852H169.11ZM176.203 104.081C176.288 100.022 172.934 96.839 168.576 96.9031C166.718 96.9244 164.282 101.09 164.24 104.316C164.197 107.798 166.718 110.96 169.559 111.067C172.87 111.195 176.117 107.777 176.182 104.102L176.203 104.081Z" fill="#FFF3ED"/>
<path d="M253.473 36.4456C253.666 35.7407 253.943 34.6298 254.285 33.5403C256.827 25.7641 261.442 19.1629 266.035 12.5404C266.889 11.3013 268.043 10.2331 269.645 11.2586C271.119 12.1985 270.649 13.6085 270.094 14.8689C267.146 21.4274 264.176 27.9645 261.143 34.4802C260.288 36.2961 259.263 38.0906 257.404 39.116C255.311 40.291 253.473 39.2228 253.452 36.4456H253.473Z" fill="#FFF3ED"/>
<path d="M138.604 99.9151C136.361 99.9151 134.288 100.001 132.216 99.8937C130.699 99.8083 129.289 99.2315 129.183 97.437C129.076 95.6639 130.379 94.8734 131.853 94.553C137.685 93.2712 143.624 93.0789 149.563 93.2498C150.631 93.2712 151.443 93.7412 151.593 94.8734C151.742 96.027 151.058 96.7106 150.076 97.0311C148.004 97.6933 145.889 98.2488 143.475 98.9324C144.222 102.009 144.073 105.064 144.372 108.076C144.521 109.4 144.564 110.746 144.607 112.092C144.628 113.096 144.457 114.122 143.325 114.378C142.086 114.656 141.616 113.63 141.381 112.712C140.334 108.93 138.839 105.277 138.796 101.261C138.796 100.812 138.668 100.342 138.625 99.9151H138.604Z" fill="#FFF3ED"/>
<path d="M278.575 65.0721C276.417 64.9867 274.857 64.9012 274.366 63.1922C273.832 61.419 275.114 60.5218 276.481 59.9022C283.744 56.5482 291.328 54.1769 299.254 52.9592C300.365 52.7883 301.39 53.0233 301.924 54.1769C302.458 55.3519 302.181 56.4201 301.284 57.3173C301.07 57.5096 300.856 57.7232 300.6 57.8514C293.379 61.2908 285.753 63.534 278.596 65.0721H278.575Z" fill="#FFF3ED"/>
<path d="M267.529 50.4811C266.525 50.417 265.585 50.1393 265.136 49.1566C264.645 48.1098 264.816 47.0417 265.67 46.2512C266.739 45.2899 267.828 44.3285 269.046 43.5595C275.177 39.65 281.372 35.8047 287.525 31.9166C288.337 31.4039 289.106 31.1903 289.853 31.938C290.58 32.6643 290.452 33.5402 289.918 34.2879C289.533 34.822 289.063 35.3347 288.55 35.7406C283.445 39.7996 278.36 43.8586 273.212 47.8748C271.545 49.178 269.729 50.2675 267.529 50.4597V50.4811Z" fill="#FFF3ED"/>
</g>
</g>
<defs>
<filter id="filter0_d_1_521" x="0.0425415" y="0.00158691" width="304.289" height="228.188" filterUnits="userSpaceOnUse" color-interpolation-filters="sRGB">
<feFlood flood-opacity="0" result="BackgroundImageFix"/>
<feColorMatrix in="SourceAlpha" type="matrix" values="0 0 0 0 0 0 0 0 0 0 0 0 0 0 0 0 0 0 127 0" result="hardAlpha"/>
<feOffset dx="2.13631" dy="2.13631"/>
<feColorMatrix type="matrix" values="0 0 0 0 0.054902 0 0 0 0 0.0862745 0 0 0 0 0.176471 0 0 0 0.15 0"/>
<feBlend mode="normal" in2="BackgroundImageFix" result="effect1_dropShadow_1_521"/>
<feBlend mode="normal" in="SourceGraphic" in2="effect1_dropShadow_1_521" result="shape"/>
</filter>
<clipPath id="clip0_1_521">
<rect width="302.181" height="226" fill="white"/>
</clipPath>
</defs>
</svg>
