<svg width="44" height="44" viewBox="0 0 44 44" fill="none" xmlns="http://www.w3.org/2000/svg">
<g clip-path="url(#clip0_1_461)">
<path opacity="0.4" d="M15.9737 8.24531C14.5397 2.04341 5.201 2.02548 3.76703 8.24531C2.92458 11.884 5.23685 14.967 7.2444 16.885C8.71422 18.2651 11.0265 18.2651 12.4963 16.885C14.5039 14.967 16.7982 11.884 15.9737 8.24531ZM9.93309 11.1132C8.94724 11.1132 8.14063 10.3066 8.14063 9.32078C8.14063 8.33493 8.92931 7.52833 9.91516 7.52833H9.93309C10.9369 7.52833 11.7255 8.33493 11.7255 9.32078C11.7255 10.3066 10.9369 11.1132 9.93309 11.1132Z" fill="white"/>
<path d="M11.7255 9.32078C11.7255 10.3066 10.9369 11.1132 9.93308 11.1132C8.94723 11.1132 8.14062 10.3066 8.14062 9.32078C8.14062 8.33493 8.92931 7.52832 9.91516 7.52832H9.93308C10.9369 7.52832 11.7255 8.33493 11.7255 9.32078Z" fill="white"/>
<path opacity="0.4" d="M39.3294 29.7548C37.8954 23.5529 28.5209 23.535 27.069 29.7548C26.2265 33.3935 28.5388 36.4765 30.5643 38.3945C32.0341 39.7747 34.3643 39.7747 35.8341 38.3945C37.8596 36.4765 40.1718 33.3935 39.3294 29.7548ZM33.2709 32.6228C32.285 32.6228 31.4784 31.8162 31.4784 30.8303C31.4784 29.8445 32.2671 29.0378 33.2529 29.0378H33.2709C34.2567 29.0378 35.0633 29.8445 35.0633 30.8303C35.0633 31.8162 34.2567 32.6228 33.2709 32.6228Z" fill="white"/>
<path d="M35.0633 30.8301C35.0633 31.8159 34.2567 32.6225 33.2709 32.6225C32.285 32.6225 31.4784 31.8159 31.4784 30.8301C31.4784 29.8442 32.2671 29.0376 33.2529 29.0376H33.2709C34.2567 29.0376 35.0633 29.8442 35.0633 30.8301Z" fill="white"/>
<path d="M21.5661 35.401H16.7623C14.6831 35.401 12.8727 34.1463 12.1557 32.2104C11.4208 30.2746 11.9586 28.1416 13.518 26.7614L27.8397 14.2321C28.7001 13.4793 28.718 12.4576 28.4671 11.7585C28.1982 11.0594 27.5171 10.3066 26.3699 10.3066H21.5661C20.8312 10.3066 20.2218 9.69717 20.2218 8.96226C20.2218 8.22736 20.8312 7.61792 21.5661 7.61792H26.3699C28.4492 7.61792 30.2596 8.87264 30.9765 10.8085C31.7114 12.7443 31.1737 14.8774 29.6143 16.2576L15.2925 28.7868C14.4322 29.5397 14.4142 30.5614 14.6652 31.2604C14.934 31.9595 15.6152 32.7123 16.7623 32.7123H21.5661C22.301 32.7123 22.9105 33.3218 22.9105 34.0567C22.9105 34.7916 22.301 35.401 21.5661 35.401Z" fill="white"/>
</g>
<defs>
<clipPath id="clip0_1_461">
<rect width="43.019" height="43.019" fill="white" transform="translate(0.0566406)"/>
</clipPath>
</defs>
</svg>
