<svg width="400" height="35" viewBox="0 0 400 35" fill="none" xmlns="http://www.w3.org/2000/svg">
<path d="M10.7237 26.6372L0.931743 1.22121H6.97974L14.4317 21.7772H11.9477L19.5077 1.22121H25.4837L15.5837 26.6372H10.7237ZM27.8198 26.6372V9.14121H33.3278V26.6372H27.8198ZM30.5918 6.72921C29.7278 6.72921 29.0078 6.44121 28.4318 5.86521C27.8798 5.26521 27.6038 4.54521 27.6038 3.70521C27.6038 2.84121 27.8798 2.12121 28.4318 1.54521C29.0078 0.969206 29.7278 0.681206 30.5918 0.681206C31.4558 0.681206 32.1638 0.969206 32.7158 1.54521C33.2678 2.12121 33.5438 2.84121 33.5438 3.70521C33.5438 4.54521 33.2678 5.26521 32.7158 5.86521C32.1638 6.44121 31.4558 6.72921 30.5918 6.72921ZM45.7025 27.0332C43.8065 27.0332 42.1145 26.6492 40.6265 25.8812C39.1625 25.0892 38.0105 23.9972 37.1705 22.6052C36.3305 21.2132 35.9105 19.6412 35.9105 17.8892C35.9105 16.1372 36.3185 14.5772 37.1345 13.2092C37.9745 11.8172 39.1025 10.7252 40.5185 9.93321C41.9345 9.14121 43.5305 8.74521 45.3065 8.74521C47.0345 8.74521 48.5585 9.11721 49.8785 9.86121C51.1985 10.6052 52.2305 11.6372 52.9745 12.9572C53.7425 14.2772 54.1265 15.7892 54.1265 17.4932C54.1265 17.8052 54.1025 18.1412 54.0545 18.5012C54.0305 18.8372 53.9705 19.2332 53.8745 19.6892L38.7905 19.7252V15.9452L51.5345 15.9092L49.1585 17.4932C49.1345 16.4852 48.9785 15.6572 48.6905 15.0092C48.4025 14.3372 47.9705 13.8332 47.3945 13.4972C46.8425 13.1372 46.1585 12.9572 45.3425 12.9572C44.4785 12.9572 43.7225 13.1612 43.0745 13.5692C42.4505 13.9532 41.9585 14.5052 41.5985 15.2252C41.2625 15.9452 41.0945 16.8212 41.0945 17.8532C41.0945 18.8852 41.2745 19.7732 41.6345 20.5172C42.0185 21.2372 42.5465 21.8012 43.2185 22.2092C43.9145 22.5932 44.7305 22.7852 45.6665 22.7852C46.5305 22.7852 47.3105 22.6412 48.0065 22.3532C48.7025 22.0412 49.3145 21.5852 49.8425 20.9852L52.8665 24.0092C52.0025 25.0172 50.9585 25.7732 49.7345 26.2772C48.5105 26.7812 47.1665 27.0332 45.7025 27.0332ZM60.7142 26.6372L54.6662 9.14121H60.0662L63.8102 21.8492L62.2262 21.8852L66.3662 9.14121H70.8302L75.0062 21.8852L73.3862 21.8492L77.1662 9.14121H82.5662L76.5182 26.6372H72.0182L67.9502 14.5412H69.3182L65.1782 26.6372H60.7142ZM91.2633 26.6372V9.14121H96.7713V26.6372H91.2633ZM102.459 26.6372V16.4132C102.459 15.5252 102.183 14.8412 101.631 14.3612C101.103 13.8572 100.443 13.6052 99.6513 13.6052C99.0993 13.6052 98.6073 13.7252 98.1753 13.9652C97.7433 14.1812 97.3953 14.4932 97.1313 14.9012C96.8913 15.3092 96.7713 15.8132 96.7713 16.4132L94.6473 15.4772C94.6473 14.0852 94.9473 12.8972 95.5473 11.9132C96.1473 10.9052 96.9633 10.1372 97.9953 9.60921C99.0273 9.05721 100.191 8.78121 101.487 8.78121C102.711 8.78121 103.803 9.05721 104.763 9.60921C105.747 10.1612 106.527 10.9292 107.103 11.9132C107.679 12.8972 107.967 14.0732 107.967 15.4412V26.6372H102.459ZM113.655 26.6372V16.4132C113.655 15.5252 113.379 14.8412 112.827 14.3612C112.299 13.8572 111.639 13.6052 110.847 13.6052C110.295 13.6052 109.803 13.7252 109.371 13.9652C108.939 14.1812 108.591 14.4932 108.327 14.9012C108.087 15.3092 107.967 15.8132 107.967 16.4132L104.799 15.9812C104.847 14.4932 105.195 13.2212 105.843 12.1652C106.515 11.0852 107.391 10.2572 108.471 9.68121C109.575 9.08121 110.811 8.78121 112.179 8.78121C113.523 8.78121 114.711 9.06921 115.743 9.64521C116.799 10.1972 117.627 11.0012 118.227 12.0572C118.851 13.0892 119.163 14.3372 119.163 15.8012V26.6372H113.655ZM130.973 27.0332C129.173 27.0332 127.541 26.6372 126.077 25.8452C124.637 25.0292 123.497 23.9252 122.657 22.5332C121.817 21.1412 121.397 19.5812 121.397 17.8532C121.397 16.1252 121.817 14.5772 122.657 13.2092C123.497 11.8412 124.637 10.7612 126.077 9.96921C127.517 9.15321 129.149 8.74521 130.973 8.74521C132.797 8.74521 134.429 9.14121 135.869 9.93321C137.309 10.7252 138.449 11.8172 139.289 13.2092C140.129 14.5772 140.549 16.1252 140.549 17.8532C140.549 19.5812 140.129 21.1412 139.289 22.5332C138.449 23.9252 137.309 25.0292 135.869 25.8452C134.429 26.6372 132.797 27.0332 130.973 27.0332ZM130.973 22.0292C131.765 22.0292 132.461 21.8612 133.061 21.5252C133.661 21.1652 134.117 20.6732 134.429 20.0492C134.765 19.4012 134.933 18.6692 134.933 17.8532C134.933 17.0372 134.765 16.3292 134.429 15.7292C134.093 15.1052 133.625 14.6252 133.025 14.2892C132.449 13.9292 131.765 13.7492 130.973 13.7492C130.205 13.7492 129.521 13.9292 128.921 14.2892C128.321 14.6252 127.853 15.1052 127.517 15.7292C127.181 16.3532 127.013 17.0732 127.013 17.8892C127.013 18.6812 127.181 19.4012 127.517 20.0492C127.853 20.6732 128.321 21.1652 128.921 21.5252C129.521 21.8612 130.205 22.0292 130.973 22.0292ZM143.147 26.6372V9.14121H148.655V26.6372H143.147ZM148.655 17.0252L146.351 15.2252C146.807 13.1852 147.575 11.6012 148.655 10.4732C149.735 9.34521 151.235 8.78121 153.155 8.78121C153.995 8.78121 154.727 8.91321 155.351 9.17721C155.999 9.41721 156.563 9.80121 157.043 10.3292L153.767 14.4692C153.527 14.2052 153.227 14.0012 152.867 13.8572C152.507 13.7132 152.099 13.6412 151.643 13.6412C150.731 13.6412 149.999 13.9292 149.447 14.5052C148.919 15.0572 148.655 15.8972 148.655 17.0252ZM166.514 27.0332C164.618 27.0332 162.926 26.6492 161.438 25.8812C159.974 25.0892 158.822 23.9972 157.982 22.6052C157.142 21.2132 156.722 19.6412 156.722 17.8892C156.722 16.1372 157.13 14.5772 157.946 13.2092C158.786 11.8172 159.914 10.7252 161.33 9.93321C162.746 9.14121 164.342 8.74521 166.118 8.74521C167.846 8.74521 169.37 9.11721 170.69 9.86121C172.01 10.6052 173.042 11.6372 173.786 12.9572C174.554 14.2772 174.938 15.7892 174.938 17.4932C174.938 17.8052 174.914 18.1412 174.866 18.5012C174.842 18.8372 174.782 19.2332 174.686 19.6892L159.602 19.7252V15.9452L172.346 15.9092L169.97 17.4932C169.946 16.4852 169.79 15.6572 169.502 15.0092C169.214 14.3372 168.782 13.8332 168.206 13.4972C167.654 13.1372 166.97 12.9572 166.154 12.9572C165.29 12.9572 164.534 13.1612 163.886 13.5692C163.262 13.9532 162.77 14.5052 162.41 15.2252C162.074 15.9452 161.906 16.8212 161.906 17.8532C161.906 18.8852 162.086 19.7732 162.446 20.5172C162.83 21.2372 163.358 21.8012 164.03 22.2092C164.726 22.5932 165.542 22.7852 166.478 22.7852C167.342 22.7852 168.122 22.6412 168.818 22.3532C169.514 22.0412 170.126 21.5852 170.654 20.9852L173.678 24.0092C172.814 25.0172 171.77 25.7732 170.546 26.2772C169.322 26.7812 167.978 27.0332 166.514 27.0332ZM192.588 27.0332C190.788 27.0332 189.156 26.6372 187.692 25.8452C186.252 25.0292 185.112 23.9252 184.272 22.5332C183.432 21.1412 183.012 19.5812 183.012 17.8532C183.012 16.1252 183.432 14.5772 184.272 13.2092C185.112 11.8412 186.252 10.7612 187.692 9.96921C189.132 9.15321 190.764 8.74521 192.588 8.74521C194.412 8.74521 196.044 9.14121 197.484 9.93321C198.924 10.7252 200.064 11.8172 200.904 13.2092C201.744 14.5772 202.164 16.1252 202.164 17.8532C202.164 19.5812 201.744 21.1412 200.904 22.5332C200.064 23.9252 198.924 25.0292 197.484 25.8452C196.044 26.6372 194.412 27.0332 192.588 27.0332ZM192.588 22.0292C193.38 22.0292 194.076 21.8612 194.676 21.5252C195.276 21.1652 195.732 20.6732 196.044 20.0492C196.38 19.4012 196.548 18.6692 196.548 17.8532C196.548 17.0372 196.38 16.3292 196.044 15.7292C195.708 15.1052 195.24 14.6252 194.64 14.2892C194.064 13.9292 193.38 13.7492 192.588 13.7492C191.82 13.7492 191.136 13.9292 190.536 14.2892C189.936 14.6252 189.468 15.1052 189.132 15.7292C188.796 16.3532 188.628 17.0732 188.628 17.8892C188.628 18.6812 188.796 19.4012 189.132 20.0492C189.468 20.6732 189.936 21.1652 190.536 21.5252C191.136 21.8612 191.82 22.0292 192.588 22.0292ZM216.319 26.6372V16.6652C216.319 15.7532 216.031 15.0212 215.455 14.4692C214.903 13.8932 214.195 13.6052 213.331 13.6052C212.731 13.6052 212.203 13.7372 211.747 14.0012C211.291 14.2412 210.931 14.6012 210.667 15.0812C210.403 15.5372 210.271 16.0652 210.271 16.6652L208.147 15.6212C208.147 14.2532 208.447 13.0532 209.047 12.0212C209.647 10.9892 210.475 10.1972 211.531 9.64521C212.611 9.06921 213.823 8.78121 215.167 8.78121C216.463 8.78121 217.603 9.09321 218.587 9.71721C219.595 10.3172 220.387 11.1212 220.963 12.1292C221.539 13.1372 221.827 14.2412 221.827 15.4412V26.6372H216.319ZM204.763 26.6372V9.14121H210.271V26.6372H204.763ZM232.436 26.6372V1.22121H238.088V26.6372H232.436ZM253.891 26.6372V16.6652C253.891 15.7532 253.603 15.0212 253.027 14.4692C252.475 13.8932 251.767 13.6052 250.903 13.6052C250.303 13.6052 249.775 13.7372 249.319 14.0012C248.863 14.2412 248.503 14.6012 248.239 15.0812C247.975 15.5372 247.843 16.0652 247.843 16.6652L245.719 15.6212C245.719 14.2532 246.019 13.0532 246.619 12.0212C247.219 10.9892 248.047 10.1972 249.103 9.64521C250.183 9.06921 251.395 8.78121 252.739 8.78121C254.035 8.78121 255.175 9.09321 256.159 9.71721C257.167 10.3172 257.959 11.1212 258.535 12.1292C259.111 13.1372 259.399 14.2412 259.399 15.4412V26.6372H253.891ZM242.335 26.6372V9.14121H247.843V26.6372H242.335ZM269.164 27.0692C268.132 27.0692 267.112 26.9372 266.104 26.6732C265.12 26.4092 264.196 26.0372 263.332 25.5572C262.492 25.0532 261.772 24.4772 261.172 23.8292L264.304 20.6612C264.88 21.2852 265.564 21.7772 266.356 22.1372C267.148 22.4732 268.012 22.6412 268.948 22.6412C269.596 22.6412 270.088 22.5452 270.424 22.3532C270.784 22.1612 270.964 21.8972 270.964 21.5612C270.964 21.1292 270.748 20.8052 270.316 20.5892C269.908 20.3492 269.38 20.1452 268.732 19.9772C268.084 19.7852 267.4 19.5812 266.68 19.3652C265.96 19.1492 265.276 18.8492 264.628 18.4652C263.98 18.0812 263.452 17.5532 263.044 16.8812C262.636 16.1852 262.432 15.3092 262.432 14.2532C262.432 13.1252 262.72 12.1532 263.296 11.3372C263.872 10.4972 264.688 9.83721 265.744 9.35721C266.8 8.87721 268.036 8.63721 269.452 8.63721C270.94 8.63721 272.308 8.90121 273.556 9.42921C274.828 9.93321 275.86 10.6892 276.652 11.6972L273.52 14.8652C272.968 14.2172 272.344 13.7612 271.648 13.4972C270.976 13.2332 270.316 13.1012 269.668 13.1012C269.044 13.1012 268.576 13.1972 268.264 13.3892C267.952 13.5572 267.796 13.8092 267.796 14.1452C267.796 14.5052 268 14.7932 268.408 15.0092C268.816 15.2252 269.344 15.4172 269.992 15.5852C270.64 15.7532 271.324 15.9572 272.044 16.1972C272.764 16.4372 273.448 16.7612 274.096 17.1692C274.744 17.5772 275.272 18.1292 275.68 18.8252C276.088 19.4972 276.292 20.3852 276.292 21.4892C276.292 23.1932 275.644 24.5492 274.348 25.5572C273.076 26.5652 271.348 27.0692 269.164 27.0692ZM281.62 26.6372V1.90521H287.128V26.6372H281.62ZM277.66 13.8212V9.14121H291.088V13.8212H277.66ZM300.328 26.9972C298.72 26.9972 297.28 26.6012 296.008 25.8092C294.76 25.0172 293.764 23.9372 293.02 22.5692C292.3 21.2012 291.94 19.6412 291.94 17.8892C291.94 16.1372 292.3 14.5772 293.02 13.2092C293.764 11.8412 294.76 10.7612 296.008 9.96921C297.28 9.17721 298.72 8.78121 300.328 8.78121C301.504 8.78121 302.56 9.00921 303.496 9.46521C304.456 9.92121 305.236 10.5572 305.836 11.3732C306.436 12.1652 306.772 13.0772 306.844 14.1092V21.6692C306.772 22.7012 306.436 23.6252 305.836 24.4412C305.26 25.2332 304.492 25.8572 303.532 26.3132C302.572 26.7692 301.504 26.9972 300.328 26.9972ZM301.444 22.0292C302.62 22.0292 303.568 21.6452 304.288 20.8772C305.008 20.0852 305.368 19.0892 305.368 17.8892C305.368 17.0732 305.2 16.3532 304.864 15.7292C304.552 15.1052 304.096 14.6252 303.496 14.2892C302.92 13.9292 302.248 13.7492 301.48 13.7492C300.712 13.7492 300.028 13.9292 299.428 14.2892C298.852 14.6252 298.384 15.1052 298.024 15.7292C297.688 16.3532 297.52 17.0732 297.52 17.8892C297.52 18.6812 297.688 19.3892 298.024 20.0132C298.36 20.6372 298.828 21.1292 299.428 21.4892C300.028 21.8492 300.7 22.0292 301.444 22.0292ZM305.152 26.6372V21.9212L305.98 17.6732L305.152 13.4252V9.14121H310.552V26.6372H305.152ZM321.702 34.4852C319.782 34.4852 318.09 34.1492 316.626 33.4772C315.186 32.8292 314.046 31.9052 313.206 30.7052L316.59 27.3212C317.214 28.0652 317.91 28.6292 318.678 29.0132C319.47 29.3972 320.418 29.5892 321.522 29.5892C322.89 29.5892 323.958 29.2532 324.726 28.5812C325.518 27.9092 325.914 26.9612 325.914 25.7372V21.2732L326.85 17.4572L326.022 13.6412V9.14121H331.422V25.5932C331.422 27.3932 331.002 28.9532 330.162 30.2732C329.322 31.5932 328.17 32.6252 326.706 33.3692C325.242 34.1132 323.574 34.4852 321.702 34.4852ZM321.45 26.0972C319.842 26.0972 318.414 25.7132 317.166 24.9452C315.918 24.1772 314.934 23.1332 314.214 21.8132C313.494 20.4932 313.134 19.0292 313.134 17.4212C313.134 15.7892 313.494 14.3252 314.214 13.0292C314.934 11.7092 315.918 10.6772 317.166 9.93321C318.414 9.16521 319.842 8.78121 321.45 8.78121C322.65 8.78121 323.718 9.00921 324.654 9.46521C325.614 9.89721 326.382 10.5212 326.958 11.3372C327.558 12.1292 327.894 13.0532 327.966 14.1092V20.7692C327.894 21.8012 327.558 22.7252 326.958 23.5412C326.382 24.3332 325.614 24.9572 324.654 25.4132C323.694 25.8692 322.626 26.0972 321.45 26.0972ZM322.494 21.2012C323.262 21.2012 323.922 21.0332 324.474 20.6972C325.05 20.3612 325.482 19.9172 325.77 19.3652C326.082 18.7892 326.238 18.1412 326.238 17.4212C326.238 16.7012 326.082 16.0532 325.77 15.4772C325.482 14.9012 325.05 14.4452 324.474 14.1092C323.922 13.7732 323.262 13.6052 322.494 13.6052C321.75 13.6052 321.09 13.7732 320.514 14.1092C319.938 14.4452 319.494 14.9012 319.182 15.4772C318.87 16.0532 318.714 16.7012 318.714 17.4212C318.714 18.0932 318.87 18.7292 319.182 19.3292C319.494 19.9052 319.926 20.3612 320.478 20.6972C321.054 21.0332 321.726 21.2012 322.494 21.2012ZM335.165 26.6372V9.14121H340.673V26.6372H335.165ZM340.673 17.0252L338.369 15.2252C338.825 13.1852 339.593 11.6012 340.673 10.4732C341.753 9.34521 343.253 8.78121 345.173 8.78121C346.013 8.78121 346.745 8.91321 347.369 9.17721C348.017 9.41721 348.581 9.80121 349.061 10.3292L345.785 14.4692C345.545 14.2052 345.245 14.0012 344.885 13.8572C344.525 13.7132 344.117 13.6412 343.661 13.6412C342.749 13.6412 342.017 13.9292 341.465 14.5052C340.937 15.0572 340.673 15.8972 340.673 17.0252ZM357.2 26.9972C355.592 26.9972 354.152 26.6012 352.88 25.8092C351.632 25.0172 350.636 23.9372 349.892 22.5692C349.172 21.2012 348.812 19.6412 348.812 17.8892C348.812 16.1372 349.172 14.5772 349.892 13.2092C350.636 11.8412 351.632 10.7612 352.88 9.96921C354.152 9.17721 355.592 8.78121 357.2 8.78121C358.376 8.78121 359.432 9.00921 360.368 9.46521C361.328 9.92121 362.108 10.5572 362.708 11.3732C363.308 12.1652 363.644 13.0772 363.716 14.1092V21.6692C363.644 22.7012 363.308 23.6252 362.708 24.4412C362.132 25.2332 361.364 25.8572 360.404 26.3132C359.444 26.7692 358.376 26.9972 357.2 26.9972ZM358.316 22.0292C359.492 22.0292 360.44 21.6452 361.16 20.8772C361.88 20.0852 362.24 19.0892 362.24 17.8892C362.24 17.0732 362.072 16.3532 361.736 15.7292C361.424 15.1052 360.968 14.6252 360.368 14.2892C359.792 13.9292 359.12 13.7492 358.352 13.7492C357.584 13.7492 356.9 13.9292 356.3 14.2892C355.724 14.6252 355.256 15.1052 354.896 15.7292C354.56 16.3532 354.392 17.0732 354.392 17.8892C354.392 18.6812 354.56 19.3892 354.896 20.0132C355.232 20.6372 355.7 21.1292 356.3 21.4892C356.9 21.8492 357.572 22.0292 358.316 22.0292ZM362.024 26.6372V21.9212L362.852 17.6732L362.024 13.4252V9.14121H367.424V26.6372H362.024ZM371.159 26.6372V9.14121H376.667V26.6372H371.159ZM382.355 26.6372V16.4132C382.355 15.5252 382.079 14.8412 381.527 14.3612C380.999 13.8572 380.339 13.6052 379.547 13.6052C378.995 13.6052 378.503 13.7252 378.071 13.9652C377.639 14.1812 377.291 14.4932 377.027 14.9012C376.787 15.3092 376.667 15.8132 376.667 16.4132L374.543 15.4772C374.543 14.0852 374.843 12.8972 375.443 11.9132C376.043 10.9052 376.859 10.1372 377.891 9.60921C378.923 9.05721 380.087 8.78121 381.383 8.78121C382.607 8.78121 383.699 9.05721 384.659 9.60921C385.643 10.1612 386.423 10.9292 386.999 11.9132C387.575 12.8972 387.863 14.0732 387.863 15.4412V26.6372H382.355ZM393.551 26.6372V16.4132C393.551 15.5252 393.275 14.8412 392.723 14.3612C392.195 13.8572 391.535 13.6052 390.743 13.6052C390.191 13.6052 389.699 13.7252 389.267 13.9652C388.835 14.1812 388.487 14.4932 388.223 14.9012C387.983 15.3092 387.863 15.8132 387.863 16.4132L384.695 15.9812C384.743 14.4932 385.091 13.2212 385.739 12.1652C386.411 11.0852 387.287 10.2572 388.367 9.68121C389.471 9.08121 390.707 8.78121 392.075 8.78121C393.419 8.78121 394.607 9.06921 395.639 9.64521C396.695 10.1972 397.523 11.0012 398.123 12.0572C398.747 13.0892 399.059 14.3372 399.059 15.8012V26.6372H393.551Z" fill="url(#paint0_linear_1_893)"/>
<defs>
<linearGradient id="paint0_linear_1_893" x1="6.06264" y1="40.6372" x2="401" y2="40.6372" gradientUnits="userSpaceOnUse">
<stop offset="0.0001" stop-color="#5C45A2"/>
<stop offset="0.338542" stop-color="#AA439D"/>
<stop offset="0.697917" stop-color="#D1284B"/>
<stop offset="1" stop-color="#F9A526"/>
</linearGradient>
</defs>
</svg>
