<svg width="25" height="25" viewBox="0 0 25 25" fill="none" xmlns="http://www.w3.org/2000/svg">
<path d="M22.5837 11.5682C22.2437 5.76815 16.9737 1.29816 10.9037 2.29816C6.72374 2.98816 3.37375 6.37814 2.72375 10.5581C2.34375 12.9781 2.84377 15.2682 3.93377 17.1582L3.04375 20.4681C2.84375 21.2181 3.53374 21.8981 4.27374 21.6881L7.53374 20.7882C9.01374 21.6582 10.7437 22.1581 12.5937 22.1581C18.2337 22.1581 22.9137 17.1882 22.5837 11.5682ZM17.4838 15.8782C17.3938 16.0582 17.2837 16.2282 17.1437 16.3882C16.8937 16.6582 16.6237 16.8582 16.3237 16.9782C16.0237 17.1082 15.6937 17.1682 15.3437 17.1682C14.8337 17.1682 14.2837 17.0482 13.7137 16.7982C13.1337 16.5482 12.5638 16.2181 11.9938 15.8081C11.4138 15.3881 10.8738 14.9182 10.3538 14.4082C9.83375 13.8882 9.37373 13.3381 8.95373 12.7681C8.54373 12.1981 8.21375 11.6281 7.97375 11.0581C7.73375 10.4881 7.61376 9.93816 7.61376 9.41816C7.61376 9.07816 7.67375 8.74816 7.79375 8.44816C7.91375 8.13816 8.10377 7.85816 8.37377 7.60816C8.69377 7.28816 9.04375 7.13816 9.41375 7.13816C9.55375 7.13816 9.69372 7.16816 9.82372 7.22816C9.95372 7.28816 10.0737 7.37816 10.1637 7.50816L11.3237 9.14814C11.4137 9.27814 11.4837 9.38815 11.5237 9.49815C11.5737 9.60815 11.5937 9.70814 11.5937 9.80814C11.5937 9.92814 11.5538 10.0482 11.4838 10.1682C11.4138 10.2882 11.3237 10.4081 11.2037 10.5281L10.8237 10.9281C10.7637 10.9881 10.7438 11.0482 10.7438 11.1282C10.7438 11.1682 10.7537 11.2081 10.7637 11.2481C10.7837 11.2881 10.7938 11.3182 10.8038 11.3482C10.8938 11.5182 11.0537 11.7281 11.2737 11.9881C11.5037 12.2481 11.7438 12.5181 12.0038 12.7781C12.2738 13.0481 12.5338 13.2881 12.8038 13.5181C13.0638 13.7381 13.2837 13.8882 13.4537 13.9782C13.4837 13.9882 13.5138 14.0081 13.5438 14.0181C13.5838 14.0381 13.6238 14.0382 13.6738 14.0382C13.7638 14.0382 13.8238 14.0082 13.8838 13.9482L14.2637 13.5682C14.3937 13.4382 14.5138 13.3482 14.6238 13.2882C14.7438 13.2182 14.8538 13.1781 14.9838 13.1781C15.0838 13.1781 15.1838 13.1981 15.2938 13.2481C15.4038 13.2981 15.5237 13.3582 15.6437 13.4482L17.3038 14.6282C17.4338 14.7182 17.5237 14.8282 17.5837 14.9482C17.6337 15.0782 17.6637 15.1981 17.6637 15.3381C17.6037 15.5081 17.5638 15.6982 17.4838 15.8782Z" fill="#F8ECE8"/>
</svg>
