<svg width="25" height="25" viewBox="0 0 25 25" fill="none" xmlns="http://www.w3.org/2000/svg">
<path fill-rule="evenodd" clip-rule="evenodd" d="M20.3958 5.57303C21.2559 5.8041 21.9362 6.48446 22.1673 7.34453C22.5909 8.91064 22.6038 12.1584 22.6038 12.1584C22.6038 12.1584 22.6038 15.419 22.1801 16.9723C21.9491 17.8323 21.2687 18.5127 20.4086 18.7438C18.8554 19.1674 12.6038 19.1674 12.6038 19.1674C12.6038 19.1674 6.35215 19.1674 4.79888 18.7438C3.9388 18.5127 3.25845 17.8323 3.02738 16.9723C2.60376 15.4062 2.60376 12.1584 2.60376 12.1584C2.60376 12.1584 2.60376 8.91064 3.01454 7.35737C3.24561 6.4973 3.92597 5.81694 4.78604 5.58587C6.33932 5.16225 12.5909 5.14941 12.5909 5.14941C12.5909 5.14941 18.8425 5.14941 20.3958 5.57303ZM15.7873 12.1584L10.6012 15.1623V9.15455L15.7873 12.1584Z" fill="#F8ECE8"/>
</svg>
